<svg width="1440" height="582" viewBox="0 0 1440 582" fill="none" xmlns="http://www.w3.org/2000/svg">
<path d="M7.05658 800.103C80.6706 800.103 140.347 740.427 140.347 666.813C140.347 593.199 80.6706 533.523 7.05658 533.523C-66.5574 533.523 -126.233 593.199 -126.233 666.813C-126.233 740.427 -66.5574 800.103 7.05658 800.103Z" fill="url(#paint0_radial)"/>
<path d="M156.696 95.9151C160.562 95.9151 163.695 92.7815 163.695 88.916C163.695 85.0506 160.562 81.917 156.696 81.917C152.831 81.917 149.697 85.0506 149.697 88.916C149.697 92.7815 152.831 95.9151 156.696 95.9151Z" fill="url(#paint1_radial)"/>
<path d="M1229.48 450.543C1229.48 441.948 1222.51 434.949 1213.89 434.949C1205.29 434.949 1198.3 441.92 1198.3 450.543C1198.3 459.138 1205.27 466.137 1213.89 466.137C1222.48 466.109 1229.48 459.138 1229.48 450.543Z" fill="url(#paint2_radial)"/>
<path opacity="0.2" d="M513.06 341.386C513.06 332.792 506.089 325.792 497.466 325.792C488.871 325.792 481.872 332.764 481.872 341.386C481.872 349.981 488.843 356.98 497.466 356.98C506.089 356.952 513.06 349.981 513.06 341.386Z" fill="url(#paint3_radial)"/>
<path opacity="0.2" d="M63.3849 494.805C63.3849 486.21 56.4139 479.211 47.791 479.211C39.1962 479.211 32.1971 486.182 32.1971 494.805C32.1971 503.4 39.1682 510.399 47.791 510.399C56.4139 510.371 63.3849 503.4 63.3849 494.805Z" fill="url(#paint4_radial)"/>
<path d="M272.237 436.041C276.102 436.041 279.236 432.907 279.236 429.042C279.236 425.177 276.102 422.043 272.237 422.043C268.371 422.043 265.238 425.177 265.238 429.042C265.238 432.907 268.371 436.041 272.237 436.041Z" fill="url(#paint5_radial)"/>
<path d="M1063.77 547.242C1063.77 543.379 1060.64 540.243 1056.77 540.243C1052.91 540.243 1049.78 543.379 1049.78 547.242C1049.78 551.106 1052.91 554.241 1056.77 554.241C1060.67 554.241 1063.77 551.106 1063.77 547.242Z" fill="url(#paint6_radial)"/>
<path d="M1370 537.164C1373.86 537.164 1377 534.03 1377 530.165C1377 526.299 1373.86 523.166 1370 523.166C1366.13 523.166 1363 526.299 1363 530.165C1363 534.03 1366.13 537.164 1370 537.164Z" fill="url(#paint7_radial)"/>
<path d="M508.049 434.865C511.914 434.865 515.048 431.732 515.048 427.866C515.048 424.001 511.914 420.867 508.049 420.867C504.183 420.867 501.05 424.001 501.05 427.866C501.05 431.732 504.183 434.865 508.049 434.865Z" fill="url(#paint8_radial)"/>
<path d="M457.516 503.792C461.381 503.792 464.515 500.658 464.515 496.793C464.515 492.927 461.381 489.793 457.516 489.793C453.65 489.793 450.517 492.927 450.517 496.793C450.517 500.658 453.65 503.792 457.516 503.792Z" fill="url(#paint9_radial)"/>
<path opacity="0.2" d="M644.502 15.5939C644.502 6.99905 637.531 0 628.908 0C620.314 0 613.315 6.97106 613.315 15.5939C613.315 24.1887 620.286 31.1878 628.908 31.1878C637.531 31.1598 644.502 24.1887 644.502 15.5939Z" fill="url(#paint10_radial)"/>
<path d="M995.575 38.1588C999.44 38.1588 1002.57 35.0252 1002.57 31.1597C1002.57 27.2942 999.44 24.1606 995.575 24.1606C991.709 24.1606 988.576 27.2942 988.576 31.1597C988.576 35.0252 991.709 38.1588 995.575 38.1588Z" fill="url(#paint11_radial)"/>
<path d="M859.681 97.7344C863.547 97.7344 866.68 94.6009 866.68 90.7354C866.68 86.8699 863.547 83.7363 859.681 83.7363C855.816 83.7363 852.682 86.8699 852.682 90.7354C852.682 94.6009 855.816 97.7344 859.681 97.7344Z" fill="url(#paint12_radial)"/>
<path d="M639.491 109.073C643.356 109.073 646.49 105.94 646.49 102.074C646.49 98.2088 643.356 95.0752 639.491 95.0752C635.626 95.0752 632.492 98.2088 632.492 102.074C632.492 105.94 635.626 109.073 639.491 109.073Z" fill="url(#paint13_radial)"/>
<path d="M271.285 524.09C275.15 524.09 278.284 520.956 278.284 517.091C278.284 513.225 275.15 510.092 271.285 510.092C267.419 510.092 264.286 513.225 264.286 517.091C264.286 520.956 267.419 524.09 271.285 524.09Z" fill="url(#paint14_radial)"/>
<defs>
<radialGradient id="paint0_radial" cx="0" cy="0" r="1" gradientUnits="userSpaceOnUse" gradientTransform="translate(7.05686 666.812) scale(133.277)">
<stop offset="0.5642" stop-color="#DE0000"/>
<stop offset="0.6313" stop-color="#DA0000"/>
<stop offset="0.6907" stop-color="#D00000"/>
<stop offset="0.7473" stop-color="#BE0000"/>
<stop offset="0.8021" stop-color="#A40000"/>
<stop offset="0.8556" stop-color="#830000"/>
<stop offset="0.9082" stop-color="#5B0000"/>
<stop offset="0.959" stop-color="#2C0000"/>
<stop offset="1"/>
</radialGradient>
<radialGradient id="paint1_radial" cx="0" cy="0" r="1" gradientUnits="userSpaceOnUse" gradientTransform="translate(156.707 88.9113) scale(6.99904)">
<stop offset="0.5642" stop-color="#F50000"/>
<stop offset="0.6284" stop-color="#F10000"/>
<stop offset="0.6852" stop-color="#E70000"/>
<stop offset="0.7393" stop-color="#D50000"/>
<stop offset="0.7917" stop-color="#BB0000"/>
<stop offset="0.8429" stop-color="#9A0000"/>
<stop offset="0.8933" stop-color="#720000"/>
<stop offset="0.9428" stop-color="#420000"/>
<stop offset="0.9906" stop-color="#0C0000"/>
<stop offset="1"/>
</radialGradient>
<radialGradient id="paint2_radial" cx="0" cy="0" r="1" gradientUnits="userSpaceOnUse" gradientTransform="translate(1213.89 450.535) scale(15.581)">
<stop offset="0.5642" stop-color="#6E008B"/>
<stop offset="0.6471" stop-color="#6B0087"/>
<stop offset="0.7204" stop-color="#63007D"/>
<stop offset="0.7902" stop-color="#54006B"/>
<stop offset="0.8578" stop-color="#400051"/>
<stop offset="0.9239" stop-color="#260030"/>
<stop offset="0.9879" stop-color="#070008"/>
<stop offset="1"/>
</radialGradient>
<radialGradient id="paint3_radial" cx="0" cy="0" r="1" gradientUnits="userSpaceOnUse" gradientTransform="translate(497.489 341.374) scale(15.581)">
<stop offset="0.5642" stop-color="#EA8100"/>
<stop offset="0.6297" stop-color="#E67F00"/>
<stop offset="0.6877" stop-color="#DC7900"/>
<stop offset="0.743" stop-color="#CA6F00"/>
<stop offset="0.7965" stop-color="#B06100"/>
<stop offset="0.8487" stop-color="#8F4F00"/>
<stop offset="0.9001" stop-color="#673900"/>
<stop offset="0.95" stop-color="#371F00"/>
<stop offset="0.9989" stop-color="#010100"/>
<stop offset="1"/>
</radialGradient>
<radialGradient id="paint4_radial" cx="0" cy="0" r="1" gradientUnits="userSpaceOnUse" gradientTransform="translate(47.8022 494.794) scale(15.581)">
<stop offset="0.5642" stop-color="#EA8100"/>
<stop offset="0.6297" stop-color="#E67F00"/>
<stop offset="0.6877" stop-color="#DC7900"/>
<stop offset="0.743" stop-color="#CA6F00"/>
<stop offset="0.7965" stop-color="#B06100"/>
<stop offset="0.8487" stop-color="#8F4F00"/>
<stop offset="0.9001" stop-color="#673900"/>
<stop offset="0.95" stop-color="#371F00"/>
<stop offset="0.9989" stop-color="#010100"/>
<stop offset="1"/>
</radialGradient>
<radialGradient id="paint5_radial" cx="0" cy="0" r="1" gradientUnits="userSpaceOnUse" gradientTransform="translate(272.25 429.031) scale(6.99905)">
<stop offset="0.5642" stop-color="#7000B2"/>
<stop offset="0.6383" stop-color="#6E00AE"/>
<stop offset="0.704" stop-color="#6700A4"/>
<stop offset="0.7664" stop-color="#5C0092"/>
<stop offset="0.8269" stop-color="#4C0078"/>
<stop offset="0.886" stop-color="#370057"/>
<stop offset="0.9432" stop-color="#1E002F"/>
<stop offset="0.9994" stop-color="#000001"/>
<stop offset="1"/>
</radialGradient>
<radialGradient id="paint6_radial" cx="0" cy="0" r="1" gradientUnits="userSpaceOnUse" gradientTransform="translate(1056.79 547.254) scale(6.99933)">
<stop offset="0.5642" stop-color="#7000B2"/>
<stop offset="0.6383" stop-color="#6E00AE"/>
<stop offset="0.704" stop-color="#6700A4"/>
<stop offset="0.7664" stop-color="#5C0092"/>
<stop offset="0.8269" stop-color="#4C0078"/>
<stop offset="0.886" stop-color="#370057"/>
<stop offset="0.9432" stop-color="#1E002F"/>
<stop offset="0.9994" stop-color="#000001"/>
<stop offset="1"/>
</radialGradient>
<radialGradient id="paint7_radial" cx="0" cy="0" r="1" gradientUnits="userSpaceOnUse" gradientTransform="translate(1370 530.157) scale(6.99905)">
<stop offset="0.5642" stop-color="#F50000"/>
<stop offset="0.6284" stop-color="#F10000"/>
<stop offset="0.6852" stop-color="#E70000"/>
<stop offset="0.7393" stop-color="#D50000"/>
<stop offset="0.7917" stop-color="#BB0000"/>
<stop offset="0.8429" stop-color="#9A0000"/>
<stop offset="0.8933" stop-color="#720000"/>
<stop offset="0.9428" stop-color="#420000"/>
<stop offset="0.9906" stop-color="#0C0000"/>
<stop offset="1"/>
</radialGradient>
<radialGradient id="paint8_radial" cx="0" cy="0" r="1" gradientUnits="userSpaceOnUse" gradientTransform="translate(508.05 427.853) scale(6.99905)">
<stop offset="0.5642" stop-color="#F50000"/>
<stop offset="0.6284" stop-color="#F10000"/>
<stop offset="0.6852" stop-color="#E70000"/>
<stop offset="0.7393" stop-color="#D50000"/>
<stop offset="0.7917" stop-color="#BB0000"/>
<stop offset="0.8429" stop-color="#9A0000"/>
<stop offset="0.8933" stop-color="#720000"/>
<stop offset="0.9428" stop-color="#420000"/>
<stop offset="0.9906" stop-color="#0C0000"/>
<stop offset="1"/>
</radialGradient>
<radialGradient id="paint9_radial" cx="0" cy="0" r="1" gradientUnits="userSpaceOnUse" gradientTransform="translate(457.515 496.788) scale(6.99905)">
<stop offset="0.5642" stop-color="#F50000"/>
<stop offset="0.6284" stop-color="#F10000"/>
<stop offset="0.6852" stop-color="#E70000"/>
<stop offset="0.7393" stop-color="#D50000"/>
<stop offset="0.7917" stop-color="#BB0000"/>
<stop offset="0.8429" stop-color="#9A0000"/>
<stop offset="0.8933" stop-color="#720000"/>
<stop offset="0.9428" stop-color="#420000"/>
<stop offset="0.9906" stop-color="#0C0000"/>
<stop offset="1"/>
</radialGradient>
<radialGradient id="paint10_radial" cx="0" cy="0" r="1" gradientUnits="userSpaceOnUse" gradientTransform="translate(628.919 15.5813) scale(15.5813)">
<stop offset="0.5642" stop-color="#EA8100"/>
<stop offset="0.6297" stop-color="#E67F00"/>
<stop offset="0.6877" stop-color="#DC7900"/>
<stop offset="0.743" stop-color="#CA6F00"/>
<stop offset="0.7965" stop-color="#B06100"/>
<stop offset="0.8487" stop-color="#8F4F00"/>
<stop offset="0.9001" stop-color="#673900"/>
<stop offset="0.95" stop-color="#371F00"/>
<stop offset="0.9989" stop-color="#010100"/>
<stop offset="1"/>
</radialGradient>
<radialGradient id="paint11_radial" cx="0" cy="0" r="1" gradientUnits="userSpaceOnUse" gradientTransform="translate(995.568 31.1622) scale(6.99905)">
<stop offset="0.5642" stop-color="#7000B2"/>
<stop offset="0.6383" stop-color="#6E00AE"/>
<stop offset="0.704" stop-color="#6700A4"/>
<stop offset="0.7664" stop-color="#5C0092"/>
<stop offset="0.8269" stop-color="#4C0078"/>
<stop offset="0.886" stop-color="#370057"/>
<stop offset="0.9432" stop-color="#1E002F"/>
<stop offset="0.9994" stop-color="#000001"/>
<stop offset="1"/>
</radialGradient>
<radialGradient id="paint12_radial" cx="0" cy="0" r="1" gradientUnits="userSpaceOnUse" gradientTransform="translate(859.678 90.7469) scale(6.99905)">
<stop offset="0.5642" stop-color="#7000B2"/>
<stop offset="0.6383" stop-color="#6E00AE"/>
<stop offset="0.704" stop-color="#6700A4"/>
<stop offset="0.7664" stop-color="#5C0092"/>
<stop offset="0.8269" stop-color="#4C0078"/>
<stop offset="0.886" stop-color="#370057"/>
<stop offset="0.9432" stop-color="#1E002F"/>
<stop offset="0.9994" stop-color="#000001"/>
<stop offset="1"/>
</radialGradient>
<radialGradient id="paint13_radial" cx="0" cy="0" r="1" gradientUnits="userSpaceOnUse" gradientTransform="translate(639.481 102.062) scale(6.99905)">
<stop offset="0.5642" stop-color="#F50000"/>
<stop offset="0.6284" stop-color="#F10000"/>
<stop offset="0.6852" stop-color="#E70000"/>
<stop offset="0.7393" stop-color="#D50000"/>
<stop offset="0.7917" stop-color="#BB0000"/>
<stop offset="0.8429" stop-color="#9A0000"/>
<stop offset="0.8933" stop-color="#720000"/>
<stop offset="0.9428" stop-color="#420000"/>
<stop offset="0.9906" stop-color="#0C0000"/>
<stop offset="1"/>
</radialGradient>
<radialGradient id="paint14_radial" cx="0" cy="0" r="1" gradientUnits="userSpaceOnUse" gradientTransform="translate(271.279 517.078) scale(6.99905)">
<stop offset="0.5642" stop-color="#7000B2"/>
<stop offset="0.6383" stop-color="#6E00AE"/>
<stop offset="0.704" stop-color="#6700A4"/>
<stop offset="0.7664" stop-color="#5C0092"/>
<stop offset="0.8269" stop-color="#4C0078"/>
<stop offset="0.886" stop-color="#370057"/>
<stop offset="0.9432" stop-color="#1E002F"/>
<stop offset="0.9994" stop-color="#000001"/>
<stop offset="1"/>
</radialGradient>
</defs>
</svg>
