<svg width="1115" height="542" viewBox="0 0 1115 542" fill="none" xmlns="http://www.w3.org/2000/svg">
<path d="M5.94613 30.1318H2.29822V515.341H5.94613V30.1318Z" fill="url(#paint0_linear)"/>
<path d="M4.12214 34.4726C6.39874 34.4726 8.24428 32.627 8.24428 30.3504C8.24428 28.0738 6.39874 26.2283 4.12214 26.2283C1.84554 26.2283 0 28.0738 0 30.3504C0 32.627 1.84554 34.4726 4.12214 34.4726Z" fill="url(#paint1_linear)"/>
<path d="M68.2525 67.5229H64.6046V477.913H68.2525V67.5229Z" fill="url(#paint2_linear)"/>
<path d="M62.3063 67.7415C62.3063 65.4798 64.1668 63.6194 66.4285 63.6194C68.6902 63.6194 70.5506 65.4798 70.5506 67.7415C70.5506 70.0032 68.6902 71.8637 66.4285 71.8637C64.1668 71.8637 62.3063 70.0032 62.3063 67.7415Z" fill="url(#paint3_linear)"/>
<path d="M86.8568 72.521H83.2089V472.989H86.8568V72.521Z" fill="url(#paint4_linear)"/>
<path d="M80.9107 72.7032C80.9107 70.4415 82.7711 68.5811 85.0328 68.5811C87.2945 68.5811 89.155 70.4415 89.155 72.7032C89.155 74.9649 87.2945 76.8253 85.0328 76.8253C82.7346 76.8253 80.9107 75.0014 80.9107 72.7032Z" fill="url(#paint5_linear)"/>
<path d="M121.475 54.6091H117.828V490.863H121.475V54.6091Z" fill="url(#paint6_linear)"/>
<path d="M115.529 54.8277C115.529 52.566 117.39 50.7056 119.651 50.7056C121.913 50.7056 123.774 52.566 123.774 54.8277C123.774 57.0894 121.913 58.9498 119.651 58.9498C117.353 58.9498 115.529 57.0894 115.529 54.8277Z" fill="url(#paint7_linear)"/>
<path d="M105.388 48.5173H101.74V496.955H105.388V48.5173Z" fill="url(#paint8_linear)"/>
<path d="M99.4421 48.7362C99.4421 46.4745 101.303 44.614 103.564 44.614C105.826 44.614 107.686 46.4745 107.686 48.7362C107.686 50.9979 105.826 52.8583 103.564 52.8583C101.303 52.8583 99.4421 50.9979 99.4421 48.7362Z" fill="url(#paint9_linear)"/>
<path d="M109 24.2593H105.352V521.251H109V24.2593Z" fill="url(#paint10_linear)"/>
<path d="M107.176 28.5634C109.452 28.5634 111.298 26.7178 111.298 24.4412C111.298 22.1646 109.452 20.3191 107.176 20.3191C104.899 20.3191 103.054 22.1646 103.054 24.4412C103.054 26.7178 104.899 28.5634 107.176 28.5634Z" fill="url(#paint11_linear)"/>
<path d="M192.5 118.995H188.852V426.478H192.5V118.995Z" fill="url(#paint12_linear)"/>
<path d="M186.554 119.214C186.554 116.952 188.415 115.092 190.676 115.092C192.938 115.092 194.799 116.952 194.799 119.214C194.799 121.476 192.938 123.336 190.676 123.336C188.415 123.336 186.554 121.476 186.554 119.214Z" fill="url(#paint13_linear)"/>
<path d="M230.293 5.28931H226.645V540.183H230.293V5.28931Z" fill="url(#paint14_linear)"/>
<path d="M224.383 5.50788C224.383 3.24617 226.243 1.38574 228.505 1.38574C230.767 1.38574 232.627 3.24617 232.627 5.50788C232.627 7.76959 230.767 9.63002 228.505 9.63002C226.207 9.63002 224.383 7.76959 224.383 5.50788Z" fill="url(#paint15_linear)"/>
<path d="M228.067 24.2593H224.42V521.251H228.067V24.2593Z" fill="url(#paint16_linear)"/>
<path d="M226.243 28.5634C228.52 28.5634 230.366 26.7178 230.366 24.4412C230.366 22.1646 228.52 20.3191 226.243 20.3191C223.967 20.3191 222.121 22.1646 222.121 24.4412C222.121 26.7178 223.967 28.5634 226.243 28.5634Z" fill="url(#paint17_linear)"/>
<path d="M251.341 118.557H247.693V426.915H251.341V118.557Z" fill="url(#paint18_linear)"/>
<path d="M245.395 118.776C245.395 116.514 247.255 114.654 249.517 114.654C251.779 114.654 253.639 116.514 253.639 118.776C253.639 121.037 251.779 122.898 249.517 122.898C247.255 122.898 245.395 121.037 245.395 118.776Z" fill="url(#paint19_linear)"/>
<path d="M314.961 40.5288H311.313V504.944H314.961V40.5288Z" fill="url(#paint20_linear)"/>
<path d="M309.015 40.7474C309.015 38.4857 310.875 36.6252 313.137 36.6252C315.398 36.6252 317.259 38.4857 317.259 40.7474C317.259 43.0091 315.398 44.8695 313.137 44.8695C310.875 44.833 309.015 43.0091 309.015 40.7474Z" fill="url(#paint21_linear)"/>
<path d="M264.802 107.577H261.154V437.932H264.802V107.577Z" fill="url(#paint22_linear)"/>
<path d="M258.856 107.759C258.856 105.497 260.68 103.637 262.978 103.637C265.276 103.637 267.1 105.497 267.1 107.759C267.1 110.021 265.276 111.881 262.978 111.881C260.68 111.881 258.856 110.057 258.856 107.759Z" fill="url(#paint23_linear)"/>
<path d="M340.861 99.7708H337.213V445.739H340.861V99.7708Z" fill="url(#paint24_linear)"/>
<path d="M334.951 99.953C334.951 97.6912 336.812 95.8308 339.073 95.8308C341.335 95.8308 343.196 97.6912 343.196 99.953C343.196 102.215 341.372 104.075 339.073 104.075C336.775 104.075 334.951 102.215 334.951 99.953Z" fill="url(#paint25_linear)"/>
<path d="M326.707 43.7385H323.059V501.77H326.707V43.7385Z" fill="url(#paint26_linear)"/>
<path d="M320.761 43.9205C320.761 41.6588 322.621 39.7983 324.883 39.7983C327.145 39.7983 329.005 41.6588 329.005 43.9205C329.005 46.1822 327.145 48.0426 324.883 48.0426C322.585 48.0426 320.761 46.2187 320.761 43.9205Z" fill="url(#paint27_linear)"/>
<path d="M398.316 102.907H394.668V442.601H398.316V102.907Z" fill="url(#paint28_linear)"/>
<path d="M392.369 103.09C392.369 100.828 394.23 98.9675 396.492 98.9675C398.753 98.9675 400.614 100.828 400.614 103.09C400.614 105.351 398.753 107.212 396.492 107.212C394.23 107.212 392.369 105.388 392.369 103.09Z" fill="url(#paint29_linear)"/>
<path d="M459.929 72.8486H456.281V472.66H459.929V72.8486Z" fill="url(#paint30_linear)"/>
<path d="M453.983 73.0308C453.983 70.7691 455.843 68.9087 458.105 68.9087C460.366 68.9087 462.227 70.7691 462.227 73.0308C462.227 75.2925 460.366 77.153 458.105 77.153C455.843 77.153 453.983 75.329 453.983 73.0308Z" fill="url(#paint31_linear)"/>
<path d="M386.496 35.8594H382.848V509.614H386.496V35.8594Z" fill="url(#paint32_linear)"/>
<path d="M380.55 36.0779C380.55 33.8162 382.411 31.9558 384.672 31.9558C386.934 31.9558 388.794 33.8162 388.794 36.0779C388.794 38.3397 386.934 40.2001 384.672 40.2001C382.411 40.1636 380.55 38.3397 380.55 36.0779Z" fill="url(#paint33_linear)"/>
<path d="M408.347 68.5444H404.699V476.965H408.347V68.5444Z" fill="url(#paint34_linear)"/>
<path d="M402.401 68.7266C402.401 66.4649 404.262 64.6045 406.523 64.6045C408.785 64.6045 410.645 66.4649 410.645 68.7266C410.645 70.9883 408.785 72.8488 406.523 72.8488C404.262 72.8488 402.401 71.0248 402.401 68.7266Z" fill="url(#paint35_linear)"/>
<path d="M503.558 112.502H499.91V432.971H503.558V112.502Z" fill="url(#paint36_linear)"/>
<path d="M497.648 112.721C497.648 110.459 499.509 108.598 501.77 108.598C504.032 108.598 505.892 110.459 505.892 112.721C505.892 114.982 504.032 116.843 501.77 116.843C499.472 116.806 497.648 114.982 497.648 112.721Z" fill="url(#paint37_linear)"/>
<path d="M485.501 113.888H481.853V431.584H485.501V113.888Z" fill="url(#paint38_linear)"/>
<path d="M483.677 118.228C485.953 118.228 487.799 116.383 487.799 114.106C487.799 111.83 485.953 109.984 483.677 109.984C481.4 109.984 479.555 111.83 479.555 114.106C479.555 116.383 481.4 118.228 483.677 118.228Z" fill="url(#paint39_linear)"/>
<path d="M581.368 75.2935H577.72V470.18H581.368V75.2935Z" fill="url(#paint40_linear)"/>
<path d="M575.422 75.512C575.422 73.2503 577.282 71.3899 579.544 71.3899C581.805 71.3899 583.666 73.2503 583.666 75.512C583.666 77.7737 581.805 79.6342 579.544 79.6342C577.246 79.5977 575.422 77.7737 575.422 75.512Z" fill="url(#paint41_linear)"/>
<path d="M593.479 99.5518H589.831V445.885H593.479V99.5518Z" fill="url(#paint42_linear)"/>
<path d="M587.569 99.7703C587.569 97.5086 589.43 95.6482 591.691 95.6482C593.953 95.6482 595.813 97.5086 595.813 99.7703C595.813 102.032 593.953 103.892 591.691 103.892C589.393 103.892 587.569 102.032 587.569 99.7703Z" fill="url(#paint43_linear)"/>
<path d="M541.533 65.5894H537.885V479.883H541.533V65.5894Z" fill="url(#paint44_linear)"/>
<path d="M535.586 65.8079C535.586 63.5462 537.447 61.6858 539.709 61.6858C541.97 61.6858 543.831 63.5462 543.831 65.8079C543.831 68.0696 541.97 69.9301 539.709 69.9301C537.447 69.9301 535.586 68.0696 535.586 65.8079Z" fill="url(#paint45_linear)"/>
<path d="M653.268 3.93994H649.62V541.569H653.268V3.93994Z" fill="url(#paint46_linear)"/>
<path d="M647.322 4.12214C647.322 1.86044 649.182 0 651.444 0C653.706 0 655.566 1.86044 655.566 4.12214C655.566 6.38385 653.706 8.24428 651.444 8.24428C649.182 8.24428 647.322 6.38385 647.322 4.12214Z" fill="url(#paint47_linear)"/>
<path d="M665.999 34.1084H662.351V511.365H665.999V34.1084Z" fill="url(#paint48_linear)"/>
<path d="M660.053 34.327C660.053 32.0653 661.914 30.2048 664.175 30.2048C666.437 30.2048 668.297 32.0653 668.297 34.327C668.297 36.5887 666.437 38.4491 664.175 38.4491C661.877 38.4126 660.053 36.5887 660.053 34.327Z" fill="url(#paint49_linear)"/>
<path d="M697.59 18.5317H693.942V526.978H697.59V18.5317Z" fill="url(#paint50_linear)"/>
<path d="M691.644 18.7137C691.644 16.452 693.505 14.5916 695.766 14.5916C698.028 14.5916 699.888 16.452 699.888 18.7137C699.888 20.9754 698.028 22.8358 695.766 22.8358C693.468 22.8358 691.644 21.0119 691.644 18.7137Z" fill="url(#paint51_linear)"/>
<path d="M688.215 32.1018H684.567V513.407H688.215V32.1018Z" fill="url(#paint52_linear)"/>
<path d="M682.269 32.284C682.269 30.0223 684.129 28.1619 686.391 28.1619C688.653 28.1619 690.513 30.0223 690.513 32.284C690.513 34.5457 688.653 36.4061 686.391 36.4061C684.129 36.4061 682.269 34.5822 682.269 32.284Z" fill="url(#paint53_linear)"/>
<path d="M670.304 77.3721H666.656V468.136H670.304V77.3721Z" fill="url(#paint54_linear)"/>
<path d="M664.358 77.5543C664.358 75.2926 666.218 73.4321 668.48 73.4321C670.742 73.4321 672.602 75.2926 672.602 77.5543C672.602 79.816 670.742 81.6764 668.48 81.6764C666.182 81.6764 664.358 79.8525 664.358 77.5543Z" fill="url(#paint55_linear)"/>
<path d="M701.968 39.1421H698.32V506.33H701.968V39.1421Z" fill="url(#paint56_linear)"/>
<path d="M700.144 43.4828C702.42 43.4828 704.266 41.6373 704.266 39.3607C704.266 37.0841 702.42 35.2385 700.144 35.2385C697.867 35.2385 696.022 37.0841 696.022 39.3607C696.022 41.6373 697.867 43.4828 700.144 43.4828Z" fill="url(#paint57_linear)"/>
<path d="M710.212 104.731H706.564V440.741H710.212V104.731Z" fill="url(#paint58_linear)"/>
<path d="M704.266 104.95C704.266 102.688 706.126 100.828 708.388 100.828C710.65 100.828 712.51 102.688 712.51 104.95C712.51 107.212 710.65 109.072 708.388 109.072C706.09 109.072 704.266 107.212 704.266 104.95Z" fill="url(#paint59_linear)"/>
<path d="M787.584 63.1091H783.936V482.364H787.584V63.1091Z" fill="url(#paint60_linear)"/>
<path d="M781.638 63.3277C781.638 61.066 783.499 59.2056 785.76 59.2056C788.022 59.2056 789.882 61.066 789.882 63.3277C789.882 65.5894 788.022 67.4499 785.76 67.4499C783.499 67.4499 781.638 65.5894 781.638 63.3277Z" fill="url(#paint61_linear)"/>
<path d="M810.858 111.919H807.21V433.555H810.858V111.919Z" fill="url(#paint62_linear)"/>
<path d="M804.912 112.137C804.912 109.876 806.772 108.015 809.034 108.015C811.296 108.015 813.156 109.876 813.156 112.137C813.156 114.399 811.296 116.259 809.034 116.259C806.772 116.223 804.912 114.399 804.912 112.137Z" fill="url(#paint63_linear)"/>
<path d="M841.354 105.279H837.706V440.23H841.354V105.279Z" fill="url(#paint64_linear)"/>
<path d="M839.53 109.583C841.807 109.583 843.653 107.738 843.653 105.461C843.653 103.185 841.807 101.339 839.53 101.339C837.254 101.339 835.408 103.185 835.408 105.461C835.408 107.738 837.254 109.583 839.53 109.583Z" fill="url(#paint65_linear)"/>
<path d="M890.273 50.9612H886.625V494.511H890.273V50.9612Z" fill="url(#paint66_linear)"/>
<path d="M884.327 51.1797C884.327 48.918 886.151 47.0576 888.449 47.0576C890.711 47.0576 892.571 48.918 892.571 51.1797C892.571 53.4415 890.711 55.3019 888.449 55.3019C886.187 55.2654 884.327 53.4415 884.327 51.1797Z" fill="url(#paint67_linear)"/>
<path d="M936.383 5.3623H932.735V540.11H936.383V5.3623Z" fill="url(#paint68_linear)"/>
<path d="M934.559 9.70302C936.835 9.70302 938.681 7.85748 938.681 5.58088C938.681 3.30429 936.835 1.45874 934.559 1.45874C932.282 1.45874 930.436 3.30429 930.436 5.58088C930.436 7.85748 932.282 9.70302 934.559 9.70302Z" fill="url(#paint69_linear)"/>
<path d="M947.545 69.1643H943.897V476.308H947.545V69.1643Z" fill="url(#paint70_linear)"/>
<path d="M941.599 69.3829C941.599 67.1212 943.459 65.2607 945.721 65.2607C947.983 65.2607 949.843 67.1212 949.843 69.3829C949.843 71.6446 947.983 73.505 945.721 73.505C943.459 73.4686 941.599 71.6446 941.599 69.3829Z" fill="url(#paint71_linear)"/>
<path d="M957.686 36.7346H954.038V508.774H957.686V36.7346Z" fill="url(#paint72_linear)"/>
<path d="M951.777 36.9168C951.777 34.6551 953.637 32.7947 955.899 32.7947C958.161 32.7947 960.021 34.6186 960.021 36.9168C960.021 39.1785 958.161 41.039 955.899 41.039C953.601 41.039 951.777 39.215 951.777 36.9168Z" fill="url(#paint73_linear)"/>
<path d="M964.471 96.4514H960.824V449.059H964.471V96.4514Z" fill="url(#paint74_linear)"/>
<path d="M958.525 96.6336C958.525 94.3719 960.386 92.5115 962.648 92.5115C964.909 92.5115 966.77 94.3719 966.77 96.6336C966.77 98.8953 964.909 100.756 962.648 100.756C960.386 100.756 958.525 98.9318 958.525 96.6336Z" fill="url(#paint75_linear)"/>
<path d="M1023.09 11.6741H1019.45V533.836H1023.09V11.6741Z" fill="url(#paint76_linear)"/>
<path d="M1021.27 15.9784C1023.55 15.9784 1025.39 14.1329 1025.39 11.8563C1025.39 9.57967 1023.55 7.73413 1021.27 7.73413C1018.99 7.73413 1017.15 9.57967 1017.15 11.8563C1017.15 14.1329 1018.99 15.9784 1021.27 15.9784Z" fill="url(#paint77_linear)"/>
<path d="M1034.91 83.8289H1031.26V461.68H1034.91V83.8289Z" fill="url(#paint78_linear)"/>
<path d="M1028.97 84.011C1028.97 81.7493 1030.83 79.8889 1033.09 79.8889C1035.35 79.8889 1037.21 81.7493 1037.21 84.011C1037.21 86.2728 1035.35 88.1332 1033.09 88.1332C1030.79 88.1332 1028.97 86.2728 1028.97 84.011Z" fill="url(#paint79_linear)"/>
<path d="M1081.13 109.583H1077.48V435.926H1081.13V109.583Z" fill="url(#paint80_linear)"/>
<path d="M1075.19 109.765C1075.19 107.504 1077.05 105.643 1079.31 105.643C1081.57 105.643 1083.43 107.504 1083.43 109.765C1083.43 112.027 1081.57 113.888 1079.31 113.888C1077.05 113.888 1075.19 112.064 1075.19 109.765Z" fill="url(#paint81_linear)"/>
<path d="M1036.15 5.39893H1032.51V540.073H1036.15V5.39893Z" fill="url(#paint82_linear)"/>
<path d="M1034.33 9.73964C1036.61 9.73964 1038.45 7.8941 1038.45 5.61751C1038.45 3.34091 1036.61 1.49536 1034.33 1.49536C1032.05 1.49536 1030.21 3.34091 1030.21 5.61751C1030.21 7.8941 1032.05 9.73964 1034.33 9.73964Z" fill="url(#paint83_linear)"/>
<path d="M1095.72 59.2056H1092.08V486.303H1095.72V59.2056Z" fill="url(#paint84_linear)"/>
<path d="M1093.9 63.5099C1096.18 63.5099 1098.02 61.6644 1098.02 59.3878C1098.02 57.1112 1096.18 55.2656 1093.9 55.2656C1091.62 55.2656 1089.78 57.1112 1089.78 59.3878C1089.78 61.6644 1091.62 63.5099 1093.9 63.5099Z" fill="url(#paint85_linear)"/>
<path d="M1111.41 19.2976H1107.76V526.138H1111.41V19.2976Z" fill="url(#paint86_linear)"/>
<path d="M1105.46 19.5162C1105.46 17.2545 1107.32 15.394 1109.59 15.394C1111.85 15.394 1113.71 17.2545 1113.71 19.5162C1113.71 21.7779 1111.85 23.6383 1109.59 23.6383C1107.32 23.6383 1105.46 21.7779 1105.46 19.5162Z" fill="url(#paint87_linear)"/>
<defs>
<linearGradient id="paint0_linear" x1="4.12984" y1="515.379" x2="4.12984" y2="25.5299" gradientUnits="userSpaceOnUse">
<stop stop-color="#0F1145" stop-opacity="0"/>
<stop offset="1" stop-color="white" stop-opacity="0.07"/>
</linearGradient>
<linearGradient id="paint1_linear" x1="4.13947" y1="34.4732" x2="4.13947" y2="26.1501" gradientUnits="userSpaceOnUse">
<stop stop-color="#0F1145" stop-opacity="0"/>
<stop offset="1" stop-color="white" stop-opacity="0.07"/>
</linearGradient>
<linearGradient id="paint2_linear" x1="66.4362" y1="477.945" x2="66.4362" y2="63.6306" gradientUnits="userSpaceOnUse">
<stop stop-color="#0F1145" stop-opacity="0"/>
<stop offset="1" stop-color="white" stop-opacity="0.07"/>
</linearGradient>
<linearGradient id="paint3_linear" x1="66.4458" y1="71.8643" x2="66.4458" y2="63.5412" gradientUnits="userSpaceOnUse">
<stop stop-color="#0F1145" stop-opacity="0"/>
<stop offset="1" stop-color="white" stop-opacity="0.07"/>
</linearGradient>
<linearGradient id="paint4_linear" x1="85.0405" y1="473.02" x2="85.0405" y2="68.7228" gradientUnits="userSpaceOnUse">
<stop stop-color="#0F1145" stop-opacity="0"/>
<stop offset="1" stop-color="white" stop-opacity="0.07"/>
</linearGradient>
<linearGradient id="paint5_linear" x1="85.0501" y1="76.826" x2="85.0501" y2="68.5029" gradientUnits="userSpaceOnUse">
<stop stop-color="#0F1145" stop-opacity="0"/>
<stop offset="1" stop-color="white" stop-opacity="0.07"/>
</linearGradient>
<linearGradient id="paint6_linear" x1="119.659" y1="490.897" x2="119.659" y2="50.4715" gradientUnits="userSpaceOnUse">
<stop stop-color="#0F1145" stop-opacity="0"/>
<stop offset="1" stop-color="white" stop-opacity="0.07"/>
</linearGradient>
<linearGradient id="paint7_linear" x1="119.669" y1="58.9505" x2="119.669" y2="50.6274" gradientUnits="userSpaceOnUse">
<stop stop-color="#0F1145" stop-opacity="0"/>
<stop offset="1" stop-color="white" stop-opacity="0.07"/>
</linearGradient>
<linearGradient id="paint8_linear" x1="103.572" y1="496.991" x2="103.572" y2="44.2642" gradientUnits="userSpaceOnUse">
<stop stop-color="#0F1145" stop-opacity="0"/>
<stop offset="1" stop-color="white" stop-opacity="0.07"/>
</linearGradient>
<linearGradient id="paint9_linear" x1="103.582" y1="52.859" x2="103.582" y2="44.5358" gradientUnits="userSpaceOnUse">
<stop stop-color="#0F1145" stop-opacity="0"/>
<stop offset="1" stop-color="white" stop-opacity="0.07"/>
</linearGradient>
<linearGradient id="paint10_linear" x1="107.183" y1="521.29" x2="107.183" y2="19.5456" gradientUnits="userSpaceOnUse">
<stop stop-color="#0F1145" stop-opacity="0"/>
<stop offset="1" stop-color="white" stop-opacity="0.07"/>
</linearGradient>
<linearGradient id="paint11_linear" x1="107.193" y1="28.564" x2="107.193" y2="20.2409" gradientUnits="userSpaceOnUse">
<stop stop-color="#0F1145" stop-opacity="0"/>
<stop offset="1" stop-color="white" stop-opacity="0.07"/>
</linearGradient>
<linearGradient id="paint12_linear" x1="190.684" y1="426.502" x2="190.684" y2="116.079" gradientUnits="userSpaceOnUse">
<stop stop-color="#0F1145" stop-opacity="0"/>
<stop offset="1" stop-color="white" stop-opacity="0.07"/>
</linearGradient>
<linearGradient id="paint13_linear" x1="190.694" y1="123.337" x2="190.694" y2="115.014" gradientUnits="userSpaceOnUse">
<stop stop-color="#0F1145" stop-opacity="0"/>
<stop offset="1" stop-color="white" stop-opacity="0.07"/>
</linearGradient>
<linearGradient id="paint14_linear" x1="228.476" y1="540.225" x2="228.476" y2="0.216148" gradientUnits="userSpaceOnUse">
<stop stop-color="#0F1145" stop-opacity="0"/>
<stop offset="1" stop-color="white" stop-opacity="0.07"/>
</linearGradient>
<linearGradient id="paint15_linear" x1="228.523" y1="9.63068" x2="228.523" y2="1.30755" gradientUnits="userSpaceOnUse">
<stop stop-color="#0F1145" stop-opacity="0"/>
<stop offset="1" stop-color="white" stop-opacity="0.07"/>
</linearGradient>
<linearGradient id="paint16_linear" x1="226.251" y1="521.29" x2="226.251" y2="19.5456" gradientUnits="userSpaceOnUse">
<stop stop-color="#0F1145" stop-opacity="0"/>
<stop offset="1" stop-color="white" stop-opacity="0.07"/>
</linearGradient>
<linearGradient id="paint17_linear" x1="226.261" y1="28.564" x2="226.261" y2="20.2409" gradientUnits="userSpaceOnUse">
<stop stop-color="#0F1145" stop-opacity="0"/>
<stop offset="1" stop-color="white" stop-opacity="0.07"/>
</linearGradient>
<linearGradient id="paint18_linear" x1="249.525" y1="426.94" x2="249.525" y2="115.633" gradientUnits="userSpaceOnUse">
<stop stop-color="#0F1145" stop-opacity="0"/>
<stop offset="1" stop-color="white" stop-opacity="0.07"/>
</linearGradient>
<linearGradient id="paint19_linear" x1="249.534" y1="122.898" x2="249.534" y2="114.575" gradientUnits="userSpaceOnUse">
<stop stop-color="#0F1145" stop-opacity="0"/>
<stop offset="1" stop-color="white" stop-opacity="0.07"/>
</linearGradient>
<linearGradient id="paint20_linear" x1="313.144" y1="504.981" x2="313.144" y2="36.1241" gradientUnits="userSpaceOnUse">
<stop stop-color="#0F1145" stop-opacity="0"/>
<stop offset="1" stop-color="white" stop-opacity="0.07"/>
</linearGradient>
<linearGradient id="paint21_linear" x1="313.154" y1="44.8702" x2="313.154" y2="36.5471" gradientUnits="userSpaceOnUse">
<stop stop-color="#0F1145" stop-opacity="0"/>
<stop offset="1" stop-color="white" stop-opacity="0.07"/>
</linearGradient>
<linearGradient id="paint22_linear" x1="262.986" y1="437.958" x2="262.986" y2="104.444" gradientUnits="userSpaceOnUse">
<stop stop-color="#0F1145" stop-opacity="0"/>
<stop offset="1" stop-color="white" stop-opacity="0.07"/>
</linearGradient>
<linearGradient id="paint23_linear" x1="262.995" y1="111.882" x2="262.995" y2="103.559" gradientUnits="userSpaceOnUse">
<stop stop-color="#0F1145" stop-opacity="0"/>
<stop offset="1" stop-color="white" stop-opacity="0.07"/>
</linearGradient>
<linearGradient id="paint24_linear" x1="339.045" y1="445.766" x2="339.045" y2="96.4894" gradientUnits="userSpaceOnUse">
<stop stop-color="#0F1145" stop-opacity="0"/>
<stop offset="1" stop-color="white" stop-opacity="0.07"/>
</linearGradient>
<linearGradient id="paint25_linear" x1="339.091" y1="104.076" x2="339.091" y2="95.7526" gradientUnits="userSpaceOnUse">
<stop stop-color="#0F1145" stop-opacity="0"/>
<stop offset="1" stop-color="white" stop-opacity="0.07"/>
</linearGradient>
<linearGradient id="paint26_linear" x1="324.891" y1="501.807" x2="324.891" y2="39.3944" gradientUnits="userSpaceOnUse">
<stop stop-color="#0F1145" stop-opacity="0"/>
<stop offset="1" stop-color="white" stop-opacity="0.07"/>
</linearGradient>
<linearGradient id="paint27_linear" x1="324.9" y1="48.0433" x2="324.9" y2="39.7201" gradientUnits="userSpaceOnUse">
<stop stop-color="#0F1145" stop-opacity="0"/>
<stop offset="1" stop-color="white" stop-opacity="0.07"/>
</linearGradient>
<linearGradient id="paint28_linear" x1="396.499" y1="442.628" x2="396.499" y2="99.6857" gradientUnits="userSpaceOnUse">
<stop stop-color="#0F1145" stop-opacity="0"/>
<stop offset="1" stop-color="white" stop-opacity="0.07"/>
</linearGradient>
<linearGradient id="paint29_linear" x1="396.509" y1="107.212" x2="396.509" y2="98.8893" gradientUnits="userSpaceOnUse">
<stop stop-color="#0F1145" stop-opacity="0"/>
<stop offset="1" stop-color="white" stop-opacity="0.07"/>
</linearGradient>
<linearGradient id="paint30_linear" x1="458.112" y1="472.691" x2="458.112" y2="69.0567" gradientUnits="userSpaceOnUse">
<stop stop-color="#0F1145" stop-opacity="0"/>
<stop offset="1" stop-color="white" stop-opacity="0.07"/>
</linearGradient>
<linearGradient id="paint31_linear" x1="458.122" y1="77.1536" x2="458.122" y2="68.8305" gradientUnits="userSpaceOnUse">
<stop stop-color="#0F1145" stop-opacity="0"/>
<stop offset="1" stop-color="white" stop-opacity="0.07"/>
</linearGradient>
<linearGradient id="paint32_linear" x1="384.68" y1="509.651" x2="384.68" y2="31.3661" gradientUnits="userSpaceOnUse">
<stop stop-color="#0F1145" stop-opacity="0"/>
<stop offset="1" stop-color="white" stop-opacity="0.07"/>
</linearGradient>
<linearGradient id="paint33_linear" x1="384.69" y1="40.2007" x2="384.69" y2="31.8776" gradientUnits="userSpaceOnUse">
<stop stop-color="#0F1145" stop-opacity="0"/>
<stop offset="1" stop-color="white" stop-opacity="0.07"/>
</linearGradient>
<linearGradient id="paint34_linear" x1="406.531" y1="476.997" x2="406.531" y2="64.6708" gradientUnits="userSpaceOnUse">
<stop stop-color="#0F1145" stop-opacity="0"/>
<stop offset="1" stop-color="white" stop-opacity="0.07"/>
</linearGradient>
<linearGradient id="paint35_linear" x1="406.541" y1="72.8494" x2="406.541" y2="64.5263" gradientUnits="userSpaceOnUse">
<stop stop-color="#0F1145" stop-opacity="0"/>
<stop offset="1" stop-color="white" stop-opacity="0.07"/>
</linearGradient>
<linearGradient id="paint36_linear" x1="501.741" y1="432.996" x2="501.741" y2="109.462" gradientUnits="userSpaceOnUse">
<stop stop-color="#0F1145" stop-opacity="0"/>
<stop offset="1" stop-color="white" stop-opacity="0.07"/>
</linearGradient>
<linearGradient id="paint37_linear" x1="501.788" y1="116.843" x2="501.788" y2="108.52" gradientUnits="userSpaceOnUse">
<stop stop-color="#0F1145" stop-opacity="0"/>
<stop offset="1" stop-color="white" stop-opacity="0.07"/>
</linearGradient>
<linearGradient id="paint38_linear" x1="483.684" y1="431.609" x2="483.684" y2="110.875" gradientUnits="userSpaceOnUse">
<stop stop-color="#0F1145" stop-opacity="0"/>
<stop offset="1" stop-color="white" stop-opacity="0.07"/>
</linearGradient>
<linearGradient id="paint39_linear" x1="483.694" y1="118.229" x2="483.694" y2="109.906" gradientUnits="userSpaceOnUse">
<stop stop-color="#0F1145" stop-opacity="0"/>
<stop offset="1" stop-color="white" stop-opacity="0.07"/>
</linearGradient>
<linearGradient id="paint40_linear" x1="579.551" y1="470.211" x2="579.551" y2="71.5482" gradientUnits="userSpaceOnUse">
<stop stop-color="#0F1145" stop-opacity="0"/>
<stop offset="1" stop-color="white" stop-opacity="0.07"/>
</linearGradient>
<linearGradient id="paint41_linear" x1="579.561" y1="79.6348" x2="579.561" y2="71.3117" gradientUnits="userSpaceOnUse">
<stop stop-color="#0F1145" stop-opacity="0"/>
<stop offset="1" stop-color="white" stop-opacity="0.07"/>
</linearGradient>
<linearGradient id="paint42_linear" x1="591.663" y1="445.912" x2="591.663" y2="96.267" gradientUnits="userSpaceOnUse">
<stop stop-color="#0F1145" stop-opacity="0"/>
<stop offset="1" stop-color="white" stop-opacity="0.07"/>
</linearGradient>
<linearGradient id="paint43_linear" x1="591.709" y1="103.893" x2="591.709" y2="95.57" gradientUnits="userSpaceOnUse">
<stop stop-color="#0F1145" stop-opacity="0"/>
<stop offset="1" stop-color="white" stop-opacity="0.07"/>
</linearGradient>
<linearGradient id="paint44_linear" x1="539.716" y1="479.915" x2="539.716" y2="61.66" gradientUnits="userSpaceOnUse">
<stop stop-color="#0F1145" stop-opacity="0"/>
<stop offset="1" stop-color="white" stop-opacity="0.07"/>
</linearGradient>
<linearGradient id="paint45_linear" x1="539.726" y1="69.9307" x2="539.726" y2="61.6076" gradientUnits="userSpaceOnUse">
<stop stop-color="#0F1145" stop-opacity="0"/>
<stop offset="1" stop-color="white" stop-opacity="0.07"/>
</linearGradient>
<linearGradient id="paint46_linear" x1="651.452" y1="541.612" x2="651.452" y2="-1.15917" gradientUnits="userSpaceOnUse">
<stop stop-color="#0F1145" stop-opacity="0"/>
<stop offset="1" stop-color="white" stop-opacity="0.07"/>
</linearGradient>
<linearGradient id="paint47_linear" x1="651.461" y1="8.24493" x2="651.461" y2="-0.0781923" gradientUnits="userSpaceOnUse">
<stop stop-color="#0F1145" stop-opacity="0"/>
<stop offset="1" stop-color="white" stop-opacity="0.07"/>
</linearGradient>
<linearGradient id="paint48_linear" x1="664.183" y1="511.402" x2="664.183" y2="29.5819" gradientUnits="userSpaceOnUse">
<stop stop-color="#0F1145" stop-opacity="0"/>
<stop offset="1" stop-color="white" stop-opacity="0.07"/>
</linearGradient>
<linearGradient id="paint49_linear" x1="664.193" y1="38.4498" x2="664.193" y2="30.1266" gradientUnits="userSpaceOnUse">
<stop stop-color="#0F1145" stop-opacity="0"/>
<stop offset="1" stop-color="white" stop-opacity="0.07"/>
</linearGradient>
<linearGradient id="paint50_linear" x1="695.774" y1="527.018" x2="695.774" y2="13.7094" gradientUnits="userSpaceOnUse">
<stop stop-color="#0F1145" stop-opacity="0"/>
<stop offset="1" stop-color="white" stop-opacity="0.07"/>
</linearGradient>
<linearGradient id="paint51_linear" x1="695.784" y1="22.8365" x2="695.784" y2="14.5134" gradientUnits="userSpaceOnUse">
<stop stop-color="#0F1145" stop-opacity="0"/>
<stop offset="1" stop-color="white" stop-opacity="0.07"/>
</linearGradient>
<linearGradient id="paint52_linear" x1="686.399" y1="513.445" x2="686.399" y2="27.5369" gradientUnits="userSpaceOnUse">
<stop stop-color="#0F1145" stop-opacity="0"/>
<stop offset="1" stop-color="white" stop-opacity="0.07"/>
</linearGradient>
<linearGradient id="paint53_linear" x1="686.408" y1="36.4068" x2="686.408" y2="28.0837" gradientUnits="userSpaceOnUse">
<stop stop-color="#0F1145" stop-opacity="0"/>
<stop offset="1" stop-color="white" stop-opacity="0.07"/>
</linearGradient>
<linearGradient id="paint54_linear" x1="668.488" y1="468.167" x2="668.488" y2="73.6659" gradientUnits="userSpaceOnUse">
<stop stop-color="#0F1145" stop-opacity="0"/>
<stop offset="1" stop-color="white" stop-opacity="0.07"/>
</linearGradient>
<linearGradient id="paint55_linear" x1="668.497" y1="81.6771" x2="668.497" y2="73.3539" gradientUnits="userSpaceOnUse">
<stop stop-color="#0F1145" stop-opacity="0"/>
<stop offset="1" stop-color="white" stop-opacity="0.07"/>
</linearGradient>
<linearGradient id="paint56_linear" x1="700.151" y1="506.367" x2="700.151" y2="34.7111" gradientUnits="userSpaceOnUse">
<stop stop-color="#0F1145" stop-opacity="0"/>
<stop offset="1" stop-color="white" stop-opacity="0.07"/>
</linearGradient>
<linearGradient id="paint57_linear" x1="700.161" y1="43.4835" x2="700.161" y2="35.1603" gradientUnits="userSpaceOnUse">
<stop stop-color="#0F1145" stop-opacity="0"/>
<stop offset="1" stop-color="white" stop-opacity="0.07"/>
</linearGradient>
<linearGradient id="paint58_linear" x1="708.396" y1="440.767" x2="708.396" y2="101.545" gradientUnits="userSpaceOnUse">
<stop stop-color="#0F1145" stop-opacity="0"/>
<stop offset="1" stop-color="white" stop-opacity="0.07"/>
</linearGradient>
<linearGradient id="paint59_linear" x1="708.405" y1="109.073" x2="708.405" y2="100.75" gradientUnits="userSpaceOnUse">
<stop stop-color="#0F1145" stop-opacity="0"/>
<stop offset="1" stop-color="white" stop-opacity="0.07"/>
</linearGradient>
<linearGradient id="paint60_linear" x1="785.768" y1="482.397" x2="785.768" y2="59.1327" gradientUnits="userSpaceOnUse">
<stop stop-color="#0F1145" stop-opacity="0"/>
<stop offset="1" stop-color="white" stop-opacity="0.07"/>
</linearGradient>
<linearGradient id="paint61_linear" x1="785.778" y1="67.4505" x2="785.778" y2="59.1274" gradientUnits="userSpaceOnUse">
<stop stop-color="#0F1145" stop-opacity="0"/>
<stop offset="1" stop-color="white" stop-opacity="0.07"/>
</linearGradient>
<linearGradient id="paint62_linear" x1="809.042" y1="433.581" x2="809.042" y2="108.868" gradientUnits="userSpaceOnUse">
<stop stop-color="#0F1145" stop-opacity="0"/>
<stop offset="1" stop-color="white" stop-opacity="0.07"/>
</linearGradient>
<linearGradient id="paint63_linear" x1="809.051" y1="116.26" x2="809.051" y2="107.937" gradientUnits="userSpaceOnUse">
<stop stop-color="#0F1145" stop-opacity="0"/>
<stop offset="1" stop-color="white" stop-opacity="0.07"/>
</linearGradient>
<linearGradient id="paint64_linear" x1="839.538" y1="440.257" x2="839.538" y2="102.102" gradientUnits="userSpaceOnUse">
<stop stop-color="#0F1145" stop-opacity="0"/>
<stop offset="1" stop-color="white" stop-opacity="0.07"/>
</linearGradient>
<linearGradient id="paint65_linear" x1="839.548" y1="109.584" x2="839.548" y2="101.261" gradientUnits="userSpaceOnUse">
<stop stop-color="#0F1145" stop-opacity="0"/>
<stop offset="1" stop-color="white" stop-opacity="0.07"/>
</linearGradient>
<linearGradient id="paint66_linear" x1="888.457" y1="494.546" x2="888.457" y2="46.7544" gradientUnits="userSpaceOnUse">
<stop stop-color="#0F1145" stop-opacity="0"/>
<stop offset="1" stop-color="white" stop-opacity="0.07"/>
</linearGradient>
<linearGradient id="paint67_linear" x1="888.466" y1="55.3025" x2="888.466" y2="46.9794" gradientUnits="userSpaceOnUse">
<stop stop-color="#0F1145" stop-opacity="0"/>
<stop offset="1" stop-color="white" stop-opacity="0.07"/>
</linearGradient>
<linearGradient id="paint68_linear" x1="934.566" y1="540.152" x2="934.566" y2="0.29053" gradientUnits="userSpaceOnUse">
<stop stop-color="#0F1145" stop-opacity="0"/>
<stop offset="1" stop-color="white" stop-opacity="0.07"/>
</linearGradient>
<linearGradient id="paint69_linear" x1="934.576" y1="9.70367" x2="934.576" y2="1.38055" gradientUnits="userSpaceOnUse">
<stop stop-color="#0F1145" stop-opacity="0"/>
<stop offset="1" stop-color="white" stop-opacity="0.07"/>
</linearGradient>
<linearGradient id="paint70_linear" x1="945.729" y1="476.34" x2="945.729" y2="65.3028" gradientUnits="userSpaceOnUse">
<stop stop-color="#0F1145" stop-opacity="0"/>
<stop offset="1" stop-color="white" stop-opacity="0.07"/>
</linearGradient>
<linearGradient id="paint71_linear" x1="945.738" y1="73.5057" x2="945.738" y2="65.1825" gradientUnits="userSpaceOnUse">
<stop stop-color="#0F1145" stop-opacity="0"/>
<stop offset="1" stop-color="white" stop-opacity="0.07"/>
</linearGradient>
<linearGradient id="paint72_linear" x1="955.87" y1="508.812" x2="955.87" y2="32.2576" gradientUnits="userSpaceOnUse">
<stop stop-color="#0F1145" stop-opacity="0"/>
<stop offset="1" stop-color="white" stop-opacity="0.07"/>
</linearGradient>
<linearGradient id="paint73_linear" x1="955.916" y1="41.0396" x2="955.916" y2="32.7165" gradientUnits="userSpaceOnUse">
<stop stop-color="#0F1145" stop-opacity="0"/>
<stop offset="1" stop-color="white" stop-opacity="0.07"/>
</linearGradient>
<linearGradient id="paint74_linear" x1="962.655" y1="449.086" x2="962.655" y2="93.1071" gradientUnits="userSpaceOnUse">
<stop stop-color="#0F1145" stop-opacity="0"/>
<stop offset="1" stop-color="white" stop-opacity="0.07"/>
</linearGradient>
<linearGradient id="paint75_linear" x1="962.665" y1="100.756" x2="962.665" y2="92.4333" gradientUnits="userSpaceOnUse">
<stop stop-color="#0F1145" stop-opacity="0"/>
<stop offset="1" stop-color="white" stop-opacity="0.07"/>
</linearGradient>
<linearGradient id="paint76_linear" x1="1021.28" y1="533.878" x2="1021.28" y2="6.72166" gradientUnits="userSpaceOnUse">
<stop stop-color="#0F1145" stop-opacity="0"/>
<stop offset="1" stop-color="white" stop-opacity="0.07"/>
</linearGradient>
<linearGradient id="paint77_linear" x1="1021.29" y1="15.9791" x2="1021.29" y2="7.65594" gradientUnits="userSpaceOnUse">
<stop stop-color="#0F1145" stop-opacity="0"/>
<stop offset="1" stop-color="white" stop-opacity="0.07"/>
</linearGradient>
<linearGradient id="paint78_linear" x1="1033.1" y1="461.709" x2="1033.1" y2="80.2452" gradientUnits="userSpaceOnUse">
<stop stop-color="#0F1145" stop-opacity="0"/>
<stop offset="1" stop-color="white" stop-opacity="0.07"/>
</linearGradient>
<linearGradient id="paint79_linear" x1="1033.11" y1="88.1338" x2="1033.11" y2="79.8107" gradientUnits="userSpaceOnUse">
<stop stop-color="#0F1145" stop-opacity="0"/>
<stop offset="1" stop-color="white" stop-opacity="0.07"/>
</linearGradient>
<linearGradient id="paint80_linear" x1="1079.32" y1="435.951" x2="1079.32" y2="106.488" gradientUnits="userSpaceOnUse">
<stop stop-color="#0F1145" stop-opacity="0"/>
<stop offset="1" stop-color="white" stop-opacity="0.07"/>
</linearGradient>
<linearGradient id="paint81_linear" x1="1079.33" y1="113.888" x2="1079.33" y2="105.565" gradientUnits="userSpaceOnUse">
<stop stop-color="#0F1145" stop-opacity="0"/>
<stop offset="1" stop-color="white" stop-opacity="0.07"/>
</linearGradient>
<linearGradient id="paint82_linear" x1="1034.34" y1="540.116" x2="1034.34" y2="0.327842" gradientUnits="userSpaceOnUse">
<stop stop-color="#0F1145" stop-opacity="0"/>
<stop offset="1" stop-color="white" stop-opacity="0.07"/>
</linearGradient>
<linearGradient id="paint83_linear" x1="1034.35" y1="9.7403" x2="1034.35" y2="1.41717" gradientUnits="userSpaceOnUse">
<stop stop-color="#0F1145" stop-opacity="0"/>
<stop offset="1" stop-color="white" stop-opacity="0.07"/>
</linearGradient>
<linearGradient id="paint84_linear" x1="1093.91" y1="486.337" x2="1093.91" y2="55.1548" gradientUnits="userSpaceOnUse">
<stop stop-color="#0F1145" stop-opacity="0"/>
<stop offset="1" stop-color="white" stop-opacity="0.07"/>
</linearGradient>
<linearGradient id="paint85_linear" x1="1093.92" y1="63.5106" x2="1093.92" y2="55.1874" gradientUnits="userSpaceOnUse">
<stop stop-color="#0F1145" stop-opacity="0"/>
<stop offset="1" stop-color="white" stop-opacity="0.07"/>
</linearGradient>
<linearGradient id="paint86_linear" x1="1109.59" y1="526.179" x2="1109.59" y2="14.4905" gradientUnits="userSpaceOnUse">
<stop stop-color="#0F1145" stop-opacity="0"/>
<stop offset="1" stop-color="white" stop-opacity="0.07"/>
</linearGradient>
<linearGradient id="paint87_linear" x1="1109.6" y1="23.639" x2="1109.6" y2="15.3159" gradientUnits="userSpaceOnUse">
<stop stop-color="#0F1145" stop-opacity="0"/>
<stop offset="1" stop-color="white" stop-opacity="0.07"/>
</linearGradient>
</defs>
</svg>
