<svg width="1440" height="572" viewBox="0 0 1440 572" fill="none" xmlns="http://www.w3.org/2000/svg">
<g opacity="0.1" clip-path="url(#clip0)">
<path d="M186.178 338.139C186.178 335.914 187.982 334.11 190.207 334.11C192.431 334.11 194.235 335.914 194.235 338.139C194.235 340.363 192.431 342.167 190.207 342.167C188.007 342.167 186.178 340.363 186.178 338.139Z" fill="url(#paint0_linear)"/>
<path d="M190.899 246.82H189.564V335.791H190.899V246.82Z" fill="url(#paint1_linear)"/>
<path d="M3.44171 228.581C3.44171 226.357 5.24585 224.552 7.47012 224.552C9.6944 224.552 11.4985 226.357 11.4985 228.581C11.4985 230.805 9.6944 232.609 7.47012 232.609C5.24585 232.609 3.44171 230.805 3.44171 228.581Z" fill="url(#paint2_linear)"/>
<path d="M8.13735 137.262H6.8028V226.258H8.13735V137.262Z" fill="url(#paint3_linear)"/>
<path d="M53.5126 133.901C53.5126 131.677 55.3167 129.872 57.541 129.872C59.7653 129.872 61.5694 131.677 61.5694 133.901C61.5694 136.125 59.7653 137.929 57.541 137.929C55.3167 137.929 53.5126 136.125 53.5126 133.901Z" fill="url(#paint4_linear)"/>
<path d="M58.2329 42.5822H56.8984V131.553H58.2329V42.5822Z" fill="url(#paint5_linear)"/>
<path d="M93.7472 154.34C93.7472 152.115 95.5513 150.311 97.7756 150.311C99.9999 150.311 101.804 152.115 101.804 154.34C101.804 156.564 99.9999 158.368 97.7756 158.368C95.5761 158.393 93.7472 156.589 93.7472 154.34Z" fill="url(#paint6_linear)"/>
<path d="M98.4676 63.0455H97.133V152.041H98.4676V63.0455Z" fill="url(#paint7_linear)"/>
<path d="M159.388 384.082C159.388 381.858 161.192 380.054 163.416 380.054C165.641 380.054 167.445 381.858 167.445 384.082C167.445 386.307 165.641 388.111 163.416 388.111C161.192 388.111 159.388 386.307 159.388 384.082Z" fill="url(#paint8_linear)"/>
<path d="M164.108 292.764H162.774V381.735H164.108V292.764Z" fill="url(#paint9_linear)"/>
<path d="M221.742 124.954C221.742 122.73 223.546 120.926 225.77 120.926C227.994 120.926 229.799 122.73 229.799 124.954C229.799 127.179 227.994 128.983 225.77 128.983C223.546 128.983 221.742 127.179 221.742 124.954Z" fill="url(#paint10_linear)"/>
<path d="M226.438 33.6603H225.103V122.631H226.438V33.6603Z" fill="url(#paint11_linear)"/>
<path d="M110.553 121C110.553 118.776 112.357 116.972 114.581 116.972C116.806 116.972 118.61 118.776 118.61 121C118.61 123.225 116.806 125.029 114.581 125.029C112.357 125.029 110.553 123.225 110.553 121Z" fill="url(#paint12_linear)"/>
<path d="M115.273 74.1917H113.939V118.677H115.273V74.1917Z" fill="url(#paint13_linear)"/>
<path d="M262.495 344.663C262.495 342.439 264.3 340.635 266.524 340.635C268.748 340.635 270.552 342.439 270.552 344.663C270.552 346.888 268.748 348.692 266.524 348.692C264.324 348.692 262.495 346.888 262.495 344.663Z" fill="url(#paint14_linear)"/>
<path d="M267.216 297.83H265.881V342.315H267.216V297.83Z" fill="url(#paint15_linear)"/>
<path d="M30.7261 108.94C30.7261 106.715 32.5302 104.911 34.7545 104.911C36.9787 104.911 38.7829 106.715 38.7829 108.94C38.7829 111.164 36.9787 112.968 34.7545 112.968C32.5302 112.968 30.7261 111.164 30.7261 108.94Z" fill="url(#paint16_linear)"/>
<path d="M35.4465 62.1063H34.1119V106.592H35.4465V62.1063Z" fill="url(#paint17_linear)"/>
<path d="M160.97 47.3026C160.97 45.0784 162.774 43.2742 164.998 43.2742C167.222 43.2742 169.027 45.0784 169.027 47.3026C169.027 49.5269 167.222 51.331 164.998 51.331C162.799 51.3558 160.97 49.5269 160.97 47.3026Z" fill="url(#paint18_linear)"/>
<path d="M165.69 0.494019H164.356V44.9795H165.69V0.494019Z" fill="url(#paint19_linear)"/>
<path d="M104.918 372.862C104.918 370.638 106.722 368.834 108.946 368.834C111.171 368.834 112.975 370.638 112.975 372.862C112.975 375.086 111.171 376.891 108.946 376.891C106.722 376.891 104.918 375.086 104.918 372.862Z" fill="url(#paint20_linear)"/>
<path d="M109.614 281.543H108.279V370.539H109.614V281.543Z" fill="url(#paint21_linear)"/>
<path d="M220.852 325.633C220.852 323.409 222.656 321.605 224.88 321.605C227.105 321.605 228.909 323.409 228.909 325.633C228.909 327.858 227.105 329.662 224.88 329.662C222.656 329.686 220.852 327.882 220.852 325.633Z" fill="url(#paint22_linear)"/>
<path d="M225.548 234.339H224.213V323.335H225.548V234.339Z" fill="url(#paint23_linear)"/>
<path d="M26.6977 549.815C26.6977 547.591 28.5018 545.787 30.7261 545.787C32.9504 545.787 34.7545 547.591 34.7545 549.815C34.7545 552.04 32.9504 553.844 30.7261 553.844C28.5018 553.869 26.6977 552.04 26.6977 549.815Z" fill="url(#paint24_linear)"/>
<path d="M31.3934 240.468H30.0588V547.492H31.3934V240.468Z" fill="url(#paint25_linear)"/>
<path d="M197.522 374.024C197.522 371.8 199.326 369.995 201.55 369.995C203.775 369.995 205.579 371.8 205.579 374.024C205.579 376.248 203.775 378.052 201.55 378.052C199.326 378.052 197.522 376.248 197.522 374.024Z" fill="url(#paint26_linear)"/>
<path d="M202.218 64.6766H200.883V371.701H202.218V64.6766Z" fill="url(#paint27_linear)"/>
<path d="M89.0021 464.008C89.0021 461.784 90.8062 459.98 93.0305 459.98C95.2547 459.98 97.0589 461.784 97.0589 464.008C97.0589 466.232 95.2547 468.037 93.0305 468.037C90.8062 468.061 89.0021 466.232 89.0021 464.008Z" fill="url(#paint28_linear)"/>
<path d="M93.7225 154.686H92.3879V461.71H93.7225V154.686Z" fill="url(#paint29_linear)"/>
<path d="M174.291 225.862C174.291 223.638 176.095 221.834 178.319 221.834C180.543 221.834 182.347 223.638 182.347 225.862C182.347 228.087 180.543 229.891 178.319 229.891C176.095 229.916 174.291 228.111 174.291 225.862Z" fill="url(#paint30_linear)"/>
<path d="M179.011 53.6788H177.676V223.539H179.011V53.6788Z" fill="url(#paint31_linear)"/>
<path d="M-4.98584 316.316C-4.98584 314.092 -3.1817 312.288 -0.95743 312.288C1.26684 312.288 3.07097 314.092 3.07097 316.316C3.07097 318.54 1.26684 320.345 -0.95743 320.345C-3.1817 320.345 -4.98584 318.54 -4.98584 316.316Z" fill="url(#paint32_linear)"/>
<path d="M1317.77 380.722C1317.77 378.497 1319.58 376.693 1321.8 376.693C1324.03 376.693 1325.83 378.497 1325.83 380.722C1325.83 382.946 1324.03 384.75 1321.8 384.75C1319.58 384.775 1317.77 382.946 1317.77 380.722Z" fill="url(#paint33_linear)"/>
<path d="M1322.47 316.366H1321.14V378.423H1322.47V316.366Z" fill="url(#paint34_linear)"/>
<path d="M1213.85 290.614C1213.85 288.389 1215.66 286.585 1217.88 286.585C1220.1 286.585 1221.91 288.389 1221.91 290.614C1221.91 292.838 1220.1 294.642 1217.88 294.642C1215.66 294.642 1213.85 292.838 1213.85 290.614Z" fill="url(#paint35_linear)"/>
<path d="M1218.55 127.673H1217.21V288.291H1218.55V127.673Z" fill="url(#paint36_linear)"/>
<path d="M1167.91 151.745C1167.91 149.521 1169.71 147.717 1171.94 147.717C1174.16 147.717 1175.96 149.521 1175.96 151.745C1175.96 153.969 1174.16 155.773 1171.94 155.773C1169.74 155.798 1167.91 153.994 1167.91 151.745Z" fill="url(#paint37_linear)"/>
<path d="M1172.63 60.4508H1171.29V149.446H1172.63V60.4508Z" fill="url(#paint38_linear)"/>
<path d="M1292.64 221.884C1292.64 219.659 1294.44 217.855 1296.67 217.855C1298.89 217.855 1300.7 219.659 1300.7 221.884C1300.7 224.108 1298.89 225.912 1296.67 225.912C1294.44 225.937 1292.64 224.108 1292.64 221.884Z" fill="url(#paint39_linear)"/>
<path d="M1297.34 130.59H1296V219.585H1297.34V130.59Z" fill="url(#paint40_linear)"/>
<path d="M1420.17 228.903C1420.17 226.678 1421.97 224.874 1424.19 224.874C1426.42 224.874 1428.22 226.678 1428.22 228.903C1428.22 231.127 1426.42 232.931 1424.19 232.931C1421.97 232.931 1420.17 231.127 1420.17 228.903Z" fill="url(#paint41_linear)"/>
<path d="M1424.89 137.608H1423.55V226.604H1424.89V137.608Z" fill="url(#paint42_linear)"/>
<path d="M1280.8 296.273C1280.8 294.049 1282.61 292.245 1284.83 292.245C1287.06 292.245 1288.86 294.049 1288.86 296.273C1288.86 298.498 1287.06 300.302 1284.83 300.302C1282.61 300.326 1280.8 298.498 1280.8 296.273Z" fill="url(#paint43_linear)"/>
<path d="M1285.52 127.055H1284.19V293.95H1285.52V127.055Z" fill="url(#paint44_linear)"/>
<path d="M1304.26 265.677C1304.26 263.453 1306.06 261.649 1308.28 261.649C1310.51 261.649 1312.31 263.453 1312.31 265.677C1312.31 267.901 1310.51 269.706 1308.28 269.706C1306.06 269.706 1304.26 267.901 1304.26 265.677Z" fill="url(#paint45_linear)"/>
<path d="M1308.98 130.12H1307.64V263.354H1308.98V130.12Z" fill="url(#paint46_linear)"/>
<path d="M1246.77 442.655C1246.77 440.431 1248.58 438.627 1250.8 438.627C1253.02 438.627 1254.83 440.431 1254.83 442.655C1254.83 444.879 1253.02 446.684 1250.8 446.684C1248.6 446.684 1246.77 444.879 1246.77 442.655Z" fill="url(#paint47_linear)"/>
<path d="M1251.49 133.308H1250.16V440.332H1251.49V133.308Z" fill="url(#paint48_linear)"/>
<path d="M1364.29 309.347C1364.29 307.123 1366.09 305.319 1368.32 305.319C1370.54 305.319 1372.34 307.123 1372.34 309.347C1372.34 311.571 1370.54 313.375 1368.32 313.375C1366.09 313.375 1364.29 311.571 1364.29 309.347Z" fill="url(#paint49_linear)"/>
<path d="M1369.01 0H1367.67V307.024H1369.01V0Z" fill="url(#paint50_linear)"/>
<path d="M1425.45 326.523C1425.45 324.299 1427.26 322.495 1429.48 322.495C1431.71 322.495 1433.51 324.299 1433.51 326.523C1433.51 328.748 1431.71 330.552 1429.48 330.552C1427.26 330.552 1425.45 328.748 1425.45 326.523Z" fill="url(#paint51_linear)"/>
<path d="M1430.15 17.1764H1428.82V324.2H1430.15V17.1764Z" fill="url(#paint52_linear)"/>
<path d="M1178.61 510.248C1178.61 508.024 1180.41 506.22 1182.64 506.22C1184.86 506.22 1186.67 508.024 1186.67 510.248C1186.67 512.473 1184.86 514.277 1182.64 514.277C1180.44 514.277 1178.61 512.473 1178.61 510.248Z" fill="url(#paint53_linear)"/>
<path d="M1183.33 200.901H1182V507.925H1183.33V200.901Z" fill="url(#paint54_linear)"/>
<path d="M1436.43 388.63C1436.43 386.406 1438.23 384.602 1440.46 384.602C1442.68 384.602 1444.48 386.406 1444.48 388.63C1444.48 390.854 1442.68 392.659 1440.46 392.659C1438.23 392.659 1436.43 390.854 1436.43 388.63Z" fill="url(#paint55_linear)"/>
<path d="M1441.15 79.2831H1439.81V386.307H1441.15V79.2831Z" fill="url(#paint56_linear)"/>
<path d="M1125.89 428.197C1125.89 425.973 1127.7 424.169 1129.92 424.169C1132.15 424.169 1133.95 425.973 1133.95 428.197C1133.95 430.422 1132.15 432.226 1129.92 432.226C1127.7 432.251 1125.89 430.446 1125.89 428.197Z" fill="url(#paint57_linear)"/>
<path d="M1130.59 256.014H1129.26V425.874H1130.59V256.014Z" fill="url(#paint58_linear)"/>
<path d="M1195.34 243.089C1195.34 240.864 1197.14 239.06 1199.37 239.06C1201.59 239.06 1203.4 240.864 1203.4 243.089C1203.4 245.313 1201.59 247.117 1199.37 247.117C1197.14 247.142 1195.34 245.338 1195.34 243.089Z" fill="url(#paint59_linear)"/>
<path d="M1200.06 117.763H1198.73V240.79H1200.06V117.763Z" fill="url(#paint60_linear)"/>
<path d="M1414.98 460.202C1414.98 457.978 1416.78 456.174 1419 456.174C1421.23 456.174 1423.03 457.978 1423.03 460.202C1423.03 462.427 1421.23 464.231 1419 464.231C1416.78 464.231 1414.98 462.427 1414.98 460.202Z" fill="url(#paint61_linear)"/>
<path d="M1419.7 287.994H1418.36V457.855H1419.7V287.994Z" fill="url(#paint62_linear)"/>
</g>
<defs>
<linearGradient id="paint0_linear" x1="190.224" y1="315.457" x2="190.224" y2="245.437" gradientUnits="userSpaceOnUse">
<stop stop-color="#A4FFFF"/>
<stop offset="1" stop-color="#A4FFFF" stop-opacity="0"/>
</linearGradient>
<linearGradient id="paint1_linear" x1="190.227" y1="315.456" x2="190.227" y2="245.438" gradientUnits="userSpaceOnUse">
<stop stop-color="#A4FFFF"/>
<stop offset="1" stop-color="#A4FFFF" stop-opacity="0"/>
</linearGradient>
<linearGradient id="paint2_linear" x1="7.46987" y1="205.897" x2="7.46987" y2="135.856" gradientUnits="userSpaceOnUse">
<stop stop-color="#A4FFFF"/>
<stop offset="1" stop-color="#A4FFFF" stop-opacity="0"/>
</linearGradient>
<linearGradient id="paint3_linear" x1="7.46958" y1="205.905" x2="7.46958" y2="135.884" gradientUnits="userSpaceOnUse">
<stop stop-color="#A4FFFF"/>
<stop offset="1" stop-color="#A4FFFF" stop-opacity="0"/>
</linearGradient>
<linearGradient id="paint4_linear" x1="57.557" y1="111.226" x2="57.557" y2="41.2065" gradientUnits="userSpaceOnUse">
<stop stop-color="#A4FFFF"/>
<stop offset="1" stop-color="#A4FFFF" stop-opacity="0"/>
</linearGradient>
<linearGradient id="paint5_linear" x1="57.5568" y1="111.225" x2="57.5568" y2="41.2073" gradientUnits="userSpaceOnUse">
<stop stop-color="#A4FFFF"/>
<stop offset="1" stop-color="#A4FFFF" stop-opacity="0"/>
</linearGradient>
<linearGradient id="paint6_linear" x1="97.7946" y1="131.676" x2="97.7946" y2="61.6535" gradientUnits="userSpaceOnUse">
<stop stop-color="#A4FFFF"/>
<stop offset="1" stop-color="#A4FFFF" stop-opacity="0"/>
</linearGradient>
<linearGradient id="paint7_linear" x1="97.7946" y1="131.676" x2="97.7946" y2="61.6568" gradientUnits="userSpaceOnUse">
<stop stop-color="#A4FFFF"/>
<stop offset="1" stop-color="#A4FFFF" stop-opacity="0"/>
</linearGradient>
<linearGradient id="paint8_linear" x1="163.431" y1="361.411" x2="163.431" y2="291.41" gradientUnits="userSpaceOnUse">
<stop stop-color="#A4FFFF"/>
<stop offset="1" stop-color="#A4FFFF" stop-opacity="0"/>
</linearGradient>
<linearGradient id="paint9_linear" x1="163.432" y1="361.404" x2="163.432" y2="291.386" gradientUnits="userSpaceOnUse">
<stop stop-color="#A4FFFF"/>
<stop offset="1" stop-color="#A4FFFF" stop-opacity="0"/>
</linearGradient>
<linearGradient id="paint10_linear" x1="225.771" y1="102.282" x2="225.771" y2="32.2625" gradientUnits="userSpaceOnUse">
<stop stop-color="#A4FFFF"/>
<stop offset="1" stop-color="#A4FFFF" stop-opacity="0"/>
</linearGradient>
<linearGradient id="paint11_linear" x1="225.77" y1="102.281" x2="225.77" y2="32.263" gradientUnits="userSpaceOnUse">
<stop stop-color="#A4FFFF"/>
<stop offset="1" stop-color="#A4FFFF" stop-opacity="0"/>
</linearGradient>
<linearGradient id="paint12_linear" x1="114.593" y1="98.3315" x2="114.593" y2="28.3119" gradientUnits="userSpaceOnUse">
<stop stop-color="#A4FFFF"/>
<stop offset="1" stop-color="#A4FFFF" stop-opacity="0"/>
</linearGradient>
<linearGradient id="paint13_linear" x1="114.594" y1="108.508" x2="114.594" y2="73.4979" gradientUnits="userSpaceOnUse">
<stop stop-color="#A4FFFF"/>
<stop offset="1" stop-color="#A4FFFF" stop-opacity="0"/>
</linearGradient>
<linearGradient id="paint14_linear" x1="266.542" y1="321.981" x2="266.542" y2="251.961" gradientUnits="userSpaceOnUse">
<stop stop-color="#A4FFFF"/>
<stop offset="1" stop-color="#A4FFFF" stop-opacity="0"/>
</linearGradient>
<linearGradient id="paint15_linear" x1="266.542" y1="332.157" x2="266.542" y2="297.148" gradientUnits="userSpaceOnUse">
<stop stop-color="#A4FFFF"/>
<stop offset="1" stop-color="#A4FFFF" stop-opacity="0"/>
</linearGradient>
<linearGradient id="paint16_linear" x1="34.771" y1="86.2508" x2="34.771" y2="16.2096" gradientUnits="userSpaceOnUse">
<stop stop-color="#A4FFFF"/>
<stop offset="1" stop-color="#A4FFFF" stop-opacity="0"/>
</linearGradient>
<linearGradient id="paint17_linear" x1="34.7711" y1="96.435" x2="34.7711" y2="61.4254" gradientUnits="userSpaceOnUse">
<stop stop-color="#A4FFFF"/>
<stop offset="1" stop-color="#A4FFFF" stop-opacity="0"/>
</linearGradient>
<linearGradient id="paint18_linear" x1="165.018" y1="24.6353" x2="165.018" y2="-45.3846" gradientUnits="userSpaceOnUse">
<stop stop-color="#A4FFFF"/>
<stop offset="1" stop-color="#A4FFFF" stop-opacity="0"/>
</linearGradient>
<linearGradient id="paint19_linear" x1="165.02" y1="34.8104" x2="165.02" y2="-0.195754" gradientUnits="userSpaceOnUse">
<stop stop-color="#A4FFFF"/>
<stop offset="1" stop-color="#A4FFFF" stop-opacity="0"/>
</linearGradient>
<linearGradient id="paint20_linear" x1="108.957" y1="350.188" x2="108.957" y2="280.168" gradientUnits="userSpaceOnUse">
<stop stop-color="#A4FFFF"/>
<stop offset="1" stop-color="#A4FFFF" stop-opacity="0"/>
</linearGradient>
<linearGradient id="paint21_linear" x1="108.956" y1="350.188" x2="108.956" y2="280.168" gradientUnits="userSpaceOnUse">
<stop stop-color="#A4FFFF"/>
<stop offset="1" stop-color="#A4FFFF" stop-opacity="0"/>
</linearGradient>
<linearGradient id="paint22_linear" x1="224.887" y1="302.964" x2="224.887" y2="232.923" gradientUnits="userSpaceOnUse">
<stop stop-color="#A4FFFF"/>
<stop offset="1" stop-color="#A4FFFF" stop-opacity="0"/>
</linearGradient>
<linearGradient id="paint23_linear" x1="224.888" y1="302.97" x2="224.888" y2="232.952" gradientUnits="userSpaceOnUse">
<stop stop-color="#A4FFFF"/>
<stop offset="1" stop-color="#A4FFFF" stop-opacity="0"/>
</linearGradient>
<linearGradient id="paint24_linear" x1="30.7345" y1="510.33" x2="30.7345" y2="385.631" gradientUnits="userSpaceOnUse">
<stop stop-color="#A4FFFF"/>
<stop offset="1" stop-color="#A4FFFF" stop-opacity="0"/>
</linearGradient>
<linearGradient id="paint25_linear" x1="30.7358" y1="479.128" x2="30.7358" y2="249.739" gradientUnits="userSpaceOnUse">
<stop stop-color="#A4FFFF"/>
<stop offset="1" stop-color="#A4FFFF" stop-opacity="0"/>
</linearGradient>
<linearGradient id="paint26_linear" x1="201.548" y1="334.534" x2="201.548" y2="209.835" gradientUnits="userSpaceOnUse">
<stop stop-color="#A4FFFF"/>
<stop offset="1" stop-color="#A4FFFF" stop-opacity="0"/>
</linearGradient>
<linearGradient id="paint27_linear" x1="201.55" y1="303.331" x2="201.55" y2="73.9432" gradientUnits="userSpaceOnUse">
<stop stop-color="#A4FFFF"/>
<stop offset="1" stop-color="#A4FFFF" stop-opacity="0"/>
</linearGradient>
<linearGradient id="paint28_linear" x1="93.0448" y1="424.523" x2="93.0448" y2="299.825" gradientUnits="userSpaceOnUse">
<stop stop-color="#A4FFFF"/>
<stop offset="1" stop-color="#A4FFFF" stop-opacity="0"/>
</linearGradient>
<linearGradient id="paint29_linear" x1="93.0461" y1="393.319" x2="93.0461" y2="163.932" gradientUnits="userSpaceOnUse">
<stop stop-color="#A4FFFF"/>
<stop offset="1" stop-color="#A4FFFF" stop-opacity="0"/>
</linearGradient>
<linearGradient id="paint30_linear" x1="178.33" y1="186.369" x2="178.33" y2="61.632" gradientUnits="userSpaceOnUse">
<stop stop-color="#A4FFFF"/>
<stop offset="1" stop-color="#A4FFFF" stop-opacity="0"/>
</linearGradient>
<linearGradient id="paint31_linear" x1="178.33" y1="185.724" x2="178.33" y2="58.8085" gradientUnits="userSpaceOnUse">
<stop stop-color="#A4FFFF"/>
<stop offset="1" stop-color="#A4FFFF" stop-opacity="0"/>
</linearGradient>
<linearGradient id="paint32_linear" x1="-0.944832" y1="276.828" x2="-0.944832" y2="152.167" gradientUnits="userSpaceOnUse">
<stop stop-color="#A4FFFF"/>
<stop offset="1" stop-color="#A4FFFF" stop-opacity="0"/>
</linearGradient>
<linearGradient id="paint33_linear" x1="1321.8" y1="358.066" x2="1321.8" y2="288.068" gradientUnits="userSpaceOnUse">
<stop stop-color="#A4FFFF"/>
<stop offset="1" stop-color="#A4FFFF" stop-opacity="0"/>
</linearGradient>
<linearGradient id="paint34_linear" x1="1321.8" y1="364.217" x2="1321.8" y2="315.388" gradientUnits="userSpaceOnUse">
<stop stop-color="#A4FFFF"/>
<stop offset="1" stop-color="#A4FFFF" stop-opacity="0"/>
</linearGradient>
<linearGradient id="paint35_linear" x1="1217.88" y1="267.943" x2="1217.88" y2="197.923" gradientUnits="userSpaceOnUse">
<stop stop-color="#A4FFFF"/>
<stop offset="1" stop-color="#A4FFFF" stop-opacity="0"/>
</linearGradient>
<linearGradient id="paint36_linear" x1="1217.88" y1="251.561" x2="1217.88" y2="125.179" gradientUnits="userSpaceOnUse">
<stop stop-color="#A4FFFF"/>
<stop offset="1" stop-color="#A4FFFF" stop-opacity="0"/>
</linearGradient>
<linearGradient id="paint37_linear" x1="1171.96" y1="129.083" x2="1171.96" y2="59.063" gradientUnits="userSpaceOnUse">
<stop stop-color="#A4FFFF"/>
<stop offset="1" stop-color="#A4FFFF" stop-opacity="0"/>
</linearGradient>
<linearGradient id="paint38_linear" x1="1171.96" y1="129.083" x2="1171.96" y2="59.0636" gradientUnits="userSpaceOnUse">
<stop stop-color="#A4FFFF"/>
<stop offset="1" stop-color="#A4FFFF" stop-opacity="0"/>
</linearGradient>
<linearGradient id="paint39_linear" x1="1296.67" y1="199.207" x2="1296.67" y2="129.166" gradientUnits="userSpaceOnUse">
<stop stop-color="#A4FFFF"/>
<stop offset="1" stop-color="#A4FFFF" stop-opacity="0"/>
</linearGradient>
<linearGradient id="paint40_linear" x1="1296.67" y1="199.213" x2="1296.67" y2="129.194" gradientUnits="userSpaceOnUse">
<stop stop-color="#A4FFFF"/>
<stop offset="1" stop-color="#A4FFFF" stop-opacity="0"/>
</linearGradient>
<linearGradient id="paint41_linear" x1="1424.21" y1="206.234" x2="1424.21" y2="136.214" gradientUnits="userSpaceOnUse">
<stop stop-color="#A4FFFF"/>
<stop offset="1" stop-color="#A4FFFF" stop-opacity="0"/>
</linearGradient>
<linearGradient id="paint42_linear" x1="1424.21" y1="206.234" x2="1424.21" y2="136.215" gradientUnits="userSpaceOnUse">
<stop stop-color="#A4FFFF"/>
<stop offset="1" stop-color="#A4FFFF" stop-opacity="0"/>
</linearGradient>
<linearGradient id="paint43_linear" x1="1284.85" y1="256.788" x2="1284.85" y2="132.089" gradientUnits="userSpaceOnUse">
<stop stop-color="#A4FFFF"/>
<stop offset="1" stop-color="#A4FFFF" stop-opacity="0"/>
</linearGradient>
<linearGradient id="paint44_linear" x1="1284.85" y1="256.79" x2="1284.85" y2="132.092" gradientUnits="userSpaceOnUse">
<stop stop-color="#A4FFFF"/>
<stop offset="1" stop-color="#A4FFFF" stop-opacity="0"/>
</linearGradient>
<linearGradient id="paint45_linear" x1="1308.3" y1="226.18" x2="1308.3" y2="101.481" gradientUnits="userSpaceOnUse">
<stop stop-color="#A4FFFF"/>
<stop offset="1" stop-color="#A4FFFF" stop-opacity="0"/>
</linearGradient>
<linearGradient id="paint46_linear" x1="1308.3" y1="233.675" x2="1308.3" y2="134.127" gradientUnits="userSpaceOnUse">
<stop stop-color="#A4FFFF"/>
<stop offset="1" stop-color="#A4FFFF" stop-opacity="0"/>
</linearGradient>
<linearGradient id="paint47_linear" x1="1250.82" y1="403.166" x2="1250.82" y2="278.467" gradientUnits="userSpaceOnUse">
<stop stop-color="#A4FFFF"/>
<stop offset="1" stop-color="#A4FFFF" stop-opacity="0"/>
</linearGradient>
<linearGradient id="paint48_linear" x1="1250.82" y1="371.961" x2="1250.82" y2="142.573" gradientUnits="userSpaceOnUse">
<stop stop-color="#A4FFFF"/>
<stop offset="1" stop-color="#A4FFFF" stop-opacity="0"/>
</linearGradient>
<linearGradient id="paint49_linear" x1="1368.33" y1="269.841" x2="1368.33" y2="145.104" gradientUnits="userSpaceOnUse">
<stop stop-color="#A4FFFF"/>
<stop offset="1" stop-color="#A4FFFF" stop-opacity="0"/>
</linearGradient>
<linearGradient id="paint50_linear" x1="1368.33" y1="238.647" x2="1368.33" y2="9.25916" gradientUnits="userSpaceOnUse">
<stop stop-color="#A4FFFF"/>
<stop offset="1" stop-color="#A4FFFF" stop-opacity="0"/>
</linearGradient>
<linearGradient id="paint51_linear" x1="1429.49" y1="287.022" x2="1429.49" y2="162.288" gradientUnits="userSpaceOnUse">
<stop stop-color="#A4FFFF"/>
<stop offset="1" stop-color="#A4FFFF" stop-opacity="0"/>
</linearGradient>
<linearGradient id="paint52_linear" x1="1429.49" y1="255.831" x2="1429.49" y2="26.441" gradientUnits="userSpaceOnUse">
<stop stop-color="#A4FFFF"/>
<stop offset="1" stop-color="#A4FFFF" stop-opacity="0"/>
</linearGradient>
<linearGradient id="paint53_linear" x1="1182.66" y1="470.758" x2="1182.66" y2="346.06" gradientUnits="userSpaceOnUse">
<stop stop-color="#A4FFFF"/>
<stop offset="1" stop-color="#A4FFFF" stop-opacity="0"/>
</linearGradient>
<linearGradient id="paint54_linear" x1="1182.66" y1="439.554" x2="1182.66" y2="210.168" gradientUnits="userSpaceOnUse">
<stop stop-color="#A4FFFF"/>
<stop offset="1" stop-color="#A4FFFF" stop-opacity="0"/>
</linearGradient>
<linearGradient id="paint55_linear" x1="1440.47" y1="349.146" x2="1440.47" y2="224.485" gradientUnits="userSpaceOnUse">
<stop stop-color="#A4FFFF"/>
<stop offset="1" stop-color="#A4FFFF" stop-opacity="0"/>
</linearGradient>
<linearGradient id="paint56_linear" x1="1440.47" y1="317.93" x2="1440.47" y2="88.5425" gradientUnits="userSpaceOnUse">
<stop stop-color="#A4FFFF"/>
<stop offset="1" stop-color="#A4FFFF" stop-opacity="0"/>
</linearGradient>
<linearGradient id="paint57_linear" x1="1129.93" y1="388.719" x2="1129.93" y2="264.02" gradientUnits="userSpaceOnUse">
<stop stop-color="#A4FFFF"/>
<stop offset="1" stop-color="#A4FFFF" stop-opacity="0"/>
</linearGradient>
<linearGradient id="paint58_linear" x1="1129.93" y1="388.058" x2="1129.93" y2="261.146" gradientUnits="userSpaceOnUse">
<stop stop-color="#A4FFFF"/>
<stop offset="1" stop-color="#A4FFFF" stop-opacity="0"/>
</linearGradient>
<linearGradient id="paint59_linear" x1="1199.39" y1="203.61" x2="1199.39" y2="78.9117" gradientUnits="userSpaceOnUse">
<stop stop-color="#A4FFFF"/>
<stop offset="1" stop-color="#A4FFFF" stop-opacity="0"/>
</linearGradient>
<linearGradient id="paint60_linear" x1="1199.39" y1="213.385" x2="1199.39" y2="121.474" gradientUnits="userSpaceOnUse">
<stop stop-color="#A4FFFF"/>
<stop offset="1" stop-color="#A4FFFF" stop-opacity="0"/>
</linearGradient>
<linearGradient id="paint61_linear" x1="1419.02" y1="420.716" x2="1419.02" y2="296.055" gradientUnits="userSpaceOnUse">
<stop stop-color="#A4FFFF"/>
<stop offset="1" stop-color="#A4FFFF" stop-opacity="0"/>
</linearGradient>
<linearGradient id="paint62_linear" x1="1419.02" y1="420.044" x2="1419.02" y2="293.129" gradientUnits="userSpaceOnUse">
<stop stop-color="#A4FFFF"/>
<stop offset="1" stop-color="#A4FFFF" stop-opacity="0"/>
</linearGradient>
<clipPath id="clip0">
<rect width="1537" height="572" fill="white" transform="translate(-23)"/>
</clipPath>
</defs>
</svg>
